<svg width="141" height="31" viewBox="0 0 141 31" fill="none" xmlns="http://www.w3.org/2000/svg">
<path fill-rule="evenodd" clip-rule="evenodd" d="M134.634 30.2735V10.4211H140.294V30.2735H134.634ZM133.953 3.92475C133.953 2.98325 134.294 2.1897 134.975 1.54409C135.656 0.898487 136.478 0.575684 137.443 0.575684C138.436 0.575684 139.259 0.898487 139.911 1.54409C140.592 2.1897 140.933 2.98325 140.933 3.92475C140.933 4.81246 140.592 5.57911 139.911 6.22472C139.259 6.87032 138.436 7.19312 137.443 7.19312C136.478 7.19312 135.656 6.87032 134.975 6.22472C134.294 5.57911 133.953 4.81246 133.953 3.92475ZM109.781 30.2735H115.441V18.6122C115.498 17.5093 115.867 16.5947 116.548 15.8684C117.229 15.1152 118.165 14.7386 119.357 14.7386C120.719 14.7386 121.697 15.1152 122.293 15.8684C122.917 16.6216 123.229 17.5631 123.229 18.6929V30.2735H128.89V17.7649C128.89 16.6889 128.734 15.6667 128.421 14.6983C128.109 13.7299 127.627 12.896 126.974 12.1966C126.35 11.4971 125.542 10.9457 124.549 10.5422C123.584 10.1118 122.435 9.89659 121.102 9.89659C120.109 9.89659 119.087 10.0714 118.037 10.4211C116.988 10.7439 116.122 11.2954 115.441 12.0755V1.05989H109.781V30.2735ZM47.7447 9.81589C49.3052 9.81589 50.7521 10.0849 52.0856 10.6229C53.4474 11.134 54.6107 11.8603 55.5753 12.8018C56.5683 13.7164 57.3343 14.8193 57.8734 16.1105C58.4408 17.4017 58.7245 18.814 58.7245 20.3473C58.7245 21.8806 58.4408 23.2929 57.8734 24.5841C57.3343 25.8484 56.5683 26.9513 55.5753 27.8928C54.6107 28.8343 53.4474 29.5741 52.0856 30.1121C50.7521 30.6232 49.3052 30.8787 47.7447 30.8787C46.1843 30.8787 44.7231 30.6232 43.3613 30.1121C42.0278 29.5741 40.8646 28.8343 39.8716 27.8928C38.9069 26.9513 38.1409 25.8484 37.5735 24.5841C37.0344 23.2929 36.7649 21.8806 36.7649 20.3473C36.7649 18.814 37.0344 17.4017 37.5735 16.1105C38.1409 14.8193 38.9069 13.7164 39.8716 12.8018C40.8646 11.8603 42.0278 11.134 43.3613 10.6229C44.7231 10.0849 46.1843 9.81589 47.7447 9.81589ZM0.644531 30.2735V10.4211H6.04933V12.8422C6.33305 12.358 6.70188 11.9276 7.15583 11.551C7.60978 11.1743 8.10628 10.865 8.64534 10.6229C9.21278 10.3808 9.79439 10.1925 10.3902 10.058C11.0144 9.92349 11.6102 9.85624 12.1776 9.85624C13.6246 9.85624 14.8871 10.1387 15.9652 10.7036C17.0434 11.2685 17.8519 12.089 18.391 13.165C19.2138 11.9545 20.1784 11.1071 21.2849 10.6229C22.3914 10.1118 23.6398 9.85624 25.03 9.85624C25.9946 9.85624 26.9309 10.0042 27.8388 10.3001C28.7467 10.5691 29.5553 11.0129 30.2646 11.6317C30.9738 12.2504 31.5413 13.0439 31.9669 14.0123C32.3924 14.9538 32.6052 16.0836 32.6052 17.4017V30.2735H27.1153V18.4912C27.1153 17.4152 26.8174 16.5275 26.2216 15.8281C25.6542 15.1018 24.7179 14.7386 23.4128 14.7386C22.1928 14.7386 21.2424 15.1287 20.5614 15.9088C19.8805 16.662 19.5401 17.5766 19.5401 18.6526V30.2735H13.9225V18.4912C13.9225 17.4152 13.6246 16.5275 13.0288 15.8281C12.433 15.1018 11.4967 14.7386 10.22 14.7386C8.97161 14.7386 8.00698 15.1152 7.32606 15.8684C6.64514 16.6216 6.30468 17.5497 6.30468 18.6526V30.2735H0.644531ZM70.5123 15.1421C71.1649 14.9 71.86 14.779 72.5976 14.779C73.9878 14.779 75.0376 15.1287 75.7469 15.8281C76.4845 16.5275 76.9811 17.2941 77.2364 18.128L82.3007 16.514C82.0738 15.6801 81.7049 14.8597 81.1943 14.0527C80.6836 13.2457 80.0168 12.5328 79.194 11.9141C78.3713 11.2954 77.3924 10.7977 76.2576 10.4211C75.1511 10.0176 73.8885 9.81589 72.47 9.81589C70.9379 9.81589 69.5051 10.0849 68.1716 10.6229C66.8666 11.134 65.7175 11.8603 64.7245 12.8018C63.7599 13.7164 62.9938 14.8193 62.4264 16.1105C61.8873 17.4017 61.6178 18.814 61.6178 20.3473C61.6178 21.8806 61.9015 23.2929 62.4689 24.5841C63.0364 25.8484 63.8166 26.9513 64.8096 27.8928C65.8026 28.8343 66.9659 29.5741 68.2993 30.1121C69.6612 30.6232 71.1081 30.8787 72.6402 30.8787C74.0304 30.8787 75.2787 30.677 76.3852 30.2735C77.4917 29.8969 78.4564 29.3992 79.2792 28.7805C80.1019 28.1349 80.7687 27.422 81.2794 26.6419C81.8184 25.8349 82.2014 25.0145 82.4284 24.1806L77.4492 22.6069C77.3357 22.9835 77.1513 23.3736 76.8959 23.7771C76.669 24.1806 76.3569 24.5437 75.9597 24.8665C75.5625 25.1893 75.0802 25.4583 74.5127 25.6735C73.9737 25.8618 73.3495 25.956 72.6402 25.956C71.9025 25.956 71.2074 25.8349 70.5549 25.5928C69.9307 25.3507 69.3633 24.9876 68.8526 24.5034C68.3703 24.0192 67.9872 23.4274 67.7035 22.728C67.4198 22.0286 67.2779 21.235 67.2779 20.3473C67.2779 19.4596 67.4198 18.666 67.7035 17.9666C67.9872 17.2672 68.3703 16.6889 68.8526 16.2316C69.3349 15.7474 69.8881 15.3842 70.5123 15.1421ZM95.7881 14.779C95.0505 14.779 94.3554 14.9 93.7028 15.1421C93.0786 15.3842 92.5254 15.7474 92.0431 16.2316C91.5608 16.6889 91.1777 17.2672 90.894 17.9666C90.6103 18.666 90.4685 19.4596 90.4685 20.3473C90.4685 21.235 90.6103 22.0286 90.894 22.728C91.1777 23.4274 91.5608 24.0192 92.0431 24.5034C92.5538 24.9876 93.1212 25.3507 93.7454 25.5928C94.3979 25.8349 95.093 25.956 95.8307 25.956C96.54 25.956 97.1642 25.8618 97.7032 25.6735C98.2707 25.4583 98.753 25.1893 99.1502 24.8665C99.5474 24.5437 99.8595 24.1806 100.086 23.7771C100.342 23.3736 100.526 22.9835 100.64 22.6069L105.619 24.1806C105.392 25.0145 105.009 25.8349 104.47 26.6419C103.959 27.422 103.292 28.1349 102.47 28.7805C101.647 29.3992 100.682 29.8969 99.5758 30.2735C98.4693 30.677 97.2209 30.8787 95.8307 30.8787C94.2986 30.8787 92.8517 30.6232 91.4898 30.1121C90.1564 29.5741 88.9931 28.8343 88.0001 27.8928C87.0071 26.9513 86.2269 25.8484 85.6595 24.5841C85.092 23.2929 84.8083 21.8806 84.8083 20.3473C84.8083 18.814 85.0778 17.4017 85.6169 16.1105C86.1843 14.8193 86.9504 13.7164 87.915 12.8018C88.908 11.8603 90.0571 11.134 91.3622 10.6229C92.6956 10.0849 94.1284 9.81589 95.6605 9.81589C97.079 9.81589 98.3416 10.0176 99.4481 10.4211C100.583 10.7977 101.562 11.2954 102.385 11.9141C103.207 12.5328 103.874 13.2457 104.385 14.0527C104.895 14.8597 105.264 15.6801 105.491 16.514L100.427 18.128C100.172 17.2941 99.6751 16.5275 98.9374 15.8281C98.2281 15.1287 97.1784 14.779 95.7881 14.779ZM54.8834 23.8438C55.4944 22.7451 55.814 21.5185 55.814 20.2726H54.7782C50.3859 20.2726 46.164 18.5726 42.9974 15.5287L42.3597 14.9158C41.4432 15.7967 40.7669 16.8813 40.3907 18.0735C40.0144 19.2657 39.9499 20.5287 40.2028 21.7506C40.4556 22.9725 41.0181 24.1156 41.8403 25.0787C42.6625 26.0417 43.7192 26.795 44.9166 27.2717C46.114 27.7485 47.4153 27.934 48.7052 27.8119C49.995 27.6898 51.2337 27.2638 52.3113 26.5717C53.389 25.8795 54.2724 24.9426 54.8834 23.8438Z" fill="#00D489"/>
</svg>
